<?xml version="1.0" standalone="no"?>
<!DOCTYPE svg PUBLIC "-//W3C//DTD SVG 1.1//EN" "http://www.w3.org/Graphics/SVG/1.1/DTD/svg11.dtd" >
<svg xmlns="http://www.w3.org/2000/svg">
<metadata></metadata>
<defs>
<font id="worship_displayregular" horiz-adv-x="1705" >
<font-face units-per-em="2048" ascent="1536" descent="-512" />
<missing-glyph horiz-adv-x="352" />
<glyph horiz-adv-x="0" />
<glyph horiz-adv-x="682" />
<glyph horiz-adv-x="0" />
<glyph horiz-adv-x="0" />
<glyph unicode="&#xd;" horiz-adv-x="352" />
<glyph unicode=" "  horiz-adv-x="352" />
<glyph unicode="&#x09;" horiz-adv-x="352" />
<glyph unicode="&#xa0;" horiz-adv-x="352" />
<glyph unicode="!" horiz-adv-x="415" d="M102 -115q0 55 43 58q5 0 12 -1t15.5 -2.5t13.5 -2.5q41 -5 58.5 -35t19.5 -62v-20q0 -58 -39 -60h-14q-61 8 -84 35.5t-25 75.5v14zM111 104q0 17 14 17v1149q41 18 84 20h10q74 0 86 -65q4 -16 4 -39q4 -78 4 -168q0 -324 -28 -643t-80 -322q-89 5 -94 51z" />
<glyph unicode="&#x22;" horiz-adv-x="843" d="M102 942l2 12q6 5 16.5 13t37 31t47 45t37 49t16.5 47q0 8 -2 12q-12 35 -45 35q-5 0 -15 -1t-14 -1q-25 0 -30 24q0 30 25.5 49t66.5 19q34 0 92 -23q78 -23 78 -86q0 -100 -205 -260q-31 -8 -55 -8q-52 0 -52 43zM430 942l2 12q6 5 16.5 13t37 31t47 45t37 49t16.5 47 q0 8 -2 12q-12 35 -45 35q-5 0 -15 -1t-14 -1q-26 0 -31 24q0 30 25.5 49t66.5 19q35 0 93 -23q77 -23 77 -86q0 -100 -204 -260q-31 -8 -56 -8q-51 0 -51 43z" />
<glyph unicode="#" horiz-adv-x="1142" d="M102 389q0 32 74 57q53 13 332.5 47t343.5 39q6 0 18 1.5t17 1.5q120 0 151 -68q0 -1 1 -4.5t1 -5.5q0 -37 -73.5 -84.5t-161.5 -69.5q-317 -72 -445 -72q-24 0 -32 2q-105 16 -105 54l4 12q-5 2 -13.5 5t-30 13t-38 20t-30 24.5t-13.5 27.5zM102 774q0 32 74 57 q53 15 326.5 48t349.5 39h22q136 0 164 -64q0 -2 1 -5t1 -5q0 -42 -73.5 -89.5t-161.5 -66.5q-338 -74 -455 -74h-22q-105 16 -105 56l4 14q-5 2 -13.5 5t-30 13t-38 20t-30 24.5t-13.5 27.5zM229 815q0 27 4 59q12 123 50 123l14 -6q2 6 4.5 16t12 36t19 46t23.5 36t27 16 q33 0 57 -92q17 -61 48 -382.5t38 -433.5q0 -7 1 -20.5t1 -19.5q0 -151 -65 -181q-4 -2 -10 -2q-38 0 -85.5 90t-70.5 195q-68 354 -68 520zM614 815q0 27 4 59q9 123 50 123l14 -6q2 6 4.5 16t12 36t19 46t23.5 36t27 16q33 0 57 -92q17 -61 48 -382.5t38 -433.5v-34 q0 -158 -63 -187q-4 -2 -10 -2q-41 0 -89 90t-67 195q-68 354 -68 520z" />
<glyph unicode="%" horiz-adv-x="1081" d="M102 1042q0 23 2 33q0 139 111 139q30 0 57 -6q43 -13 72.5 -43.5t41.5 -68.5t16 -64.5t4 -50.5v-14q0 -4 -0.5 -11t-5.5 -25.5t-13 -32t-26 -25t-42 -11.5q-12 0 -18 2q-103 8 -151 58t-48 120zM141 84q0 9 3.5 17.5t6.5 12.5l3 5l622 1151q6 0 16.5 -1t37 -8t47 -18 t37 -33t16.5 -51q0 -6 -4 -26q-14 -48 -108.5 -229.5t-210.5 -383t-230 -361t-158 -159.5q-6 0 -8 2q-70 37 -70 82zM676 121q0 23 2 33q0 78 29.5 108.5t80.5 30.5q31 0 58 -6q43 -13 72 -43.5t41 -69t16 -65t4 -50.5v-14q0 -4 -0.5 -11t-5 -25t-12.5 -32t-26 -25t-42 -11 q-13 0 -19 2q-103 8 -150.5 58t-47.5 120z" />
<glyph unicode="&#x26;" horiz-adv-x="1107" d="M51 135q0 135 104 313.5t236 288.5q60 50 120.5 117t106 129t87.5 126.5t67.5 110t44 80t19.5 35.5q15 15 34 15q31 0 61 -27t30 -63q0 -21 -65.5 -124.5t-187 -258.5t-245.5 -281q-57 -58 -87 -93t-62.5 -85t-46 -103.5t-13.5 -119.5q0 -71 14 -148q49 -51 49 -82 q0 -26 -43 -26q-2 0 -8.5 1t-9.5 1q-106 4 -155.5 56t-49.5 138zM256 -10q2 -16 156 216q46 69 92 140q195 311 284 426q139 182 216 182q2 0 14.5 -6t25.5 -16t13 -19q0 -14 -17 -14q-54 -4 -162.5 -129t-219 -291.5t-207.5 -339.5q-28 -49 -52.5 -86.5t-40 -56.5t-29 -31 t-19.5 -15t-11 -3l-6 2q-29 51 -35 51q-2 0 -2 -10zM496 1110q0 111 59 207q13 24 90.5 56t120.5 32q12 0 16 -2q43 -16 87.5 -52t68.5 -63l23 -28q-29 -19 -58 -19q-43 0 -53 51q-20 74 -92 74q-40 0 -80 -22.5t-62 -57.5q-32 -54 -32 -188q0 -93 20 -158q54 -164 328 -313 q4 -4 6 -4q23 -14 23 -33q0 -8 -4.5 -17t-8.5 -13l-4 -5q-12 5 -33.5 15.5t-80 45.5t-108 73.5t-103 100t-80.5 125.5q-43 103 -43 195z" />
<glyph unicode="(" horiz-adv-x="665" d="M102 614q0 375 248 646l33 14q21 6 45 6q46 0 83 -25t48 -61q4 -16 4 -23q0 -36 -39 -69q-184 -278 -184 -674q0 -303 96 -606q4 -16 12.5 -40t10.5 -32l6 -18l14 -29q2 -6 2 -18q0 -19 -14 -23q-1 0 -4 -1t-4 -1l-25 6q-7 9 -19 27t-47 75t-66.5 117t-70 150.5 t-65.5 179.5q-64 213 -64 399z" />
<glyph unicode=")" horiz-adv-x="653" d="M102 -262q8 14 21.5 39t48 107.5t60.5 170t47.5 219.5t21.5 263q0 243 -74 483q-32 101 -73 190l-2 9q-5 15 -5 16q0 25 33 35q10 4 35 4q64 0 134 -40t100 -112q15 -30 34 -98q68 -211 68 -449q0 -518 -320 -901l-22 -10q-18 -6 -35 -6q-50 0 -68 51z" />
<glyph unicode="," horiz-adv-x="516" d="M102 -100l2 12q6 5 16.5 13t37 31t47 44.5t37 48.5t16.5 47q0 9 -2 13q-12 34 -45 34q-5 0 -15 -1t-14 -1q-25 0 -30 25q0 29 25.5 48t66.5 19q37 0 92 -22q78 -23 78 -86q0 -100 -205 -260q-31 -8 -55 -8q-52 0 -52 43z" />
<glyph unicode="-" d="M428 571q0 2 1 5.5t1 5.5q0 1 1 4t1 4q6 26 56 50t102 24q54 10 133 10q81 0 117 -8q19 -4 22 -7q58 -17 58 -38q0 -11 -7 -11q54 -38 54 -71q-3 -32 -56 -41h-32q-74 0 -209 6t-156 10q-86 16 -86 57z" />
<glyph unicode="." horiz-adv-x="421" d="M102 129q0 17 2 23q0 100 78 100q17 0 41 -4q31 -9 52 -31t29.5 -49.5t11.5 -47t3 -36.5v-10q0 -3 -0.5 -8t-3.5 -18t-9 -22.5t-18.5 -17.5t-29.5 -8q-8 0 -14 2q-73 6 -107.5 42t-34.5 85z" />
<glyph unicode="/" horiz-adv-x="993" d="M102 84q0 9 3 17.5t7 12.5l3 5l622 1151q6 0 16.5 -1t37 -8t47 -18t37 -33t16.5 -51q0 -6 -4 -26q-14 -48 -108.5 -229.5t-210.5 -383t-230 -361t-158 -159.5q-6 0 -8 2q-70 37 -70 82z" />
<glyph unicode="0" horiz-adv-x="794" d="M102 567q0 161 38 326.5t91.5 272.5t100.5 126q50 17 76 17q20 0 24 -11q0 -1 1 -3t1 -3q0 -12 -16.5 -29.5t-32.5 -23.5q-55 -27 -89 -191t-34 -366q0 -277 62 -424q43 -106 110 -106q21 0 37 8l16 8q2 2 9 2q12 0 27 -13t23 -25l9 -13q-7 -9 -19.5 -24t-48 -45.5 t-67.5 -43.5q-23 -10 -45 -10q-18 0 -33 6q-121 82 -180 225q-60 149 -60 340zM326 1262q0 20 26 30q1 0 23 6l12 5q19 8 45 8q53 0 99.5 -49t82.5 -138q78 -193 78 -460q0 -170 -38.5 -320t-118.5 -250q-27 -10 -48 -10q-31 0 -41 20q-2 4 -2 11q0 28 43 53 q40 18 76.5 207.5t36.5 396.5q0 234 -51 358q-50 119 -143 119q-30 0 -54 -8q-21 6 -26 21z" />
<glyph unicode="1" horiz-adv-x="587" d="M102 924q6 13 16 35t41.5 80t61.5 104t71 88t75 51q6 2 16 2q33 0 57.5 -31t34.5 -73q6 -24 6 -45q0 -24 -6 -33q-22 -138 -22 -365q0 -141 8 -303.5t16 -255.5l8 -92q0 -80 -43 -92q-116 11 -161 180q-27 111 -27 264q0 135 18.5 303.5t37 289t18.5 138.5q-1 5 -14 -14 q-5 -8 -103 -167q-36 -59 -43 -64q-23 -20 -35 -23q-1 0 -4 -1t-4 -1q-18 0 -23 25z" />
<glyph unicode="2" horiz-adv-x="798" d="M102 895q0 18 8 44t14 43l7 17q4 10 10.5 26.5t26.5 60.5t40 79.5t48.5 70.5t54.5 46l13 2q33 10 69 10q96 0 127 -127q0 -49 -102.5 -515.5t-102.5 -528.5v-10q3 -9 150.5 196t152.5 215q7 5 23 8q6 3 16 3q31 0 37 -25q0 -2 1 -6t1 -6q0 -16 -12 -43q0 -20 -77 -129.5 t-173 -219t-137 -122.5h-16q-102 0 -125 104q-11 53 -11 96q0 135 74 439q10 39 32.5 128.5t31.5 126.5t22 94.5t18 90t5 53.5q0 15 -2 19q-4 12 -9 12q-14 0 -59.5 -70.5t-85 -141.5t-37.5 -71q-2 0 -5 -1t-5 -1q-15 0 -21 19q-2 4 -2 14z" />
<glyph unicode="3" horiz-adv-x="782" d="M102 162q0 84 95 143l10 6q1 -3 -7 -22.5t-17 -49t-9 -53.5q0 -12 4 -28q15 -45 64 -52q21 -6 49 -6q29 0 59 9q63 16 111 73q78 90 78 283q0 137 -39 264q-3 14 -13.5 25.5t-23.5 11.5q-6 0 -10 -2l-19 -10q-10 -8 -20.5 -34.5t-24 -50.5t-33.5 -30q-2 -2 -12 -2 q-6 -2 -20 -2q-20 0 -36 12t-22.5 20.5t-7.5 6.5q0 4 2 8q13 38 28.5 90t34.5 142.5t19 148.5q0 35 -6 59q-12 45 -49 45q-17 0 -25 -2q-8 -3 -47.5 -101.5t-60.5 -105.5q-1 0 -4.5 1.5t-4.5 1.5l-6 12q-2 4 -2 12q0 11 4.5 24.5t8.5 20.5l4 8q1 7 2.5 18t10.5 42t22 58 t39 57t59 47l20 6q12 4 33 4q72 0 100 -105q23 -78 23 -192l-4 -103q41 17 84 31q38 10 65 10q33 0 43 -18q29 -145 29 -275q0 -245 -98.5 -398t-253.5 -197q-33 -10 -45 -11q-12 -4 -35 -4q-47 0 -86 32.5t-51 78.5q-9 31 -9 43z" />
<glyph unicode="4" horiz-adv-x="741" d="M102 1214q25 22 45 25q4 2 13 2q53 0 80 -119q22 -91 35.5 -312t25.5 -269q0 -1 3.5 -11.5t7 -19t7.5 -8.5q3 0 5 2q13 2 35.5 35.5t47.5 67t42 36.5q10 0 18 -16l12 -47l-2 6q-2 -5 -5.5 -13t-16 -30t-26.5 -39.5t-37 -34.5t-48 -23q-8 -2 -25 -2q-55 0 -114 48 q-28 25 -47 106q-22 91 -36 245t-17 263zM397 530q0 130 17 265.5t36 214t31 92.5q34 13 47 16q16 4 27 4q51 0 84 -57q-53 -58 -77.5 -242.5t-24.5 -410.5t20 -353q-9 -23 -29 -26q-23 0 -45 26q-35 71 -53 152q-33 135 -33 319z" />
<glyph unicode="5" horiz-adv-x="1110" d="M102 551q11 0 25 -2q76 -15 86 -64q1 -6 5.5 -38.5t10.5 -57.5q17 -82 69 -156t151 -114q16 -2 45 -2q152 0 261 110t109 258q0 43 -8 76q-25 113 -123 201l-16 4q-2 0 -6 1t-6 1q-41 0 -107 -42t-112 -84l-46 -42q-12 -4 -28 -4q-13 0 -21 2q-33 3 -61 35q-20 20 -29 63 q-10 44 -10 123q0 63 7 139.5t14 121.5l7 46q26 13 70.5 33t156.5 53t195 33q34 0 64 -6q46 -9 76 -27q67 -51 73 -84q0 -11 -11 -17.5t-28 -6.5q-14 0 -20 2q-27 3 -45 18q-34 6 -66 6q-69 0 -134.5 -25t-96.5 -50l-31 -25l-35 -209q15 11 40 28t92 45t122 28q13 0 37 -4 q25 -2 58 -21q44 -32 90 -109.5t67 -169.5q15 -69 15 -116q0 -72 -23 -136t-73.5 -125.5t-143 -110t-219.5 -75.5h-21q-23 0 -51 4q-53 10 -101.5 38t-83 63.5t-65.5 83.5t-50.5 88t-36 86.5t-23.5 70.5t-13 48z" />
<glyph unicode="6" horiz-adv-x="778" d="M102 457q0 128 37 274t91.5 260t117.5 194t113 91q21 6 57 6q47 0 64 -10q34 -19 41 -45q0 -20 -62 -35q-28 -8 -78 -14q-59 -18 -103.5 -69.5t-70.5 -125.5t-38.5 -159.5t-12.5 -180.5q0 -139 31 -287q26 -120 67.5 -190t94.5 -70h10q7 0 10 -10q0 -2 1 -5t1 -5 q0 -23 -14 -47.5t-33 -28.5h-14q-51 0 -92.5 16.5t-73 48.5t-52.5 64t-44 78q-26 67 -33 100q-15 71 -15 150zM213 700q0 19 21.5 40t52.5 30q3 0 9.5 1t10.5 1q7 0 15 4q8 2 24 2q54 0 120 -38t124.5 -111t77.5 -158q8 -46 8 -70q0 -216 -260 -401q-1 -2 -3 -3t-5.5 -1.5 t-4.5 -1.5q-4 0 -12 3t-8 5q0 9 11.5 27t23.5 31l12 14q4 2 10.5 6.5t25 19.5t35 32.5t36 46.5t32.5 61q27 69 27 137q0 31 -6 65q-22 97 -107.5 163t-244.5 77q-19 0 -25 18z" />
<glyph unicode="7" horiz-adv-x="800" d="M102 563q0 8 15.5 30t15.5 44q0 20 102.5 75.5t204.5 100.5l103 45l28 8q10 6 31 25t35 22q18 0 37 -22q18 -11 24 -23q0 -6 -6 -6l-10 -2l2 -12l-92 -70l-426 -211q-8 -20 -33 -24q-14 0 -27 10q-4 4 -4 10zM111 993q0 46 14 60q20 22 53.5 56.5t112.5 100t129 82.5 q40 17 69 25q21 6 43 6q61 0 72 -51q4 -16 4 -31q0 -23 -6 -57q-1 -6 -61.5 -251.5t-99 -446.5t-38.5 -318q0 -41 7 -76q6 -25 18 -37q31 -27 35 -47q0 -1 1 -3t1 -3q0 -15 -23 -18q-8 -2 -26 -2l-31 2q-3 0 -8.5 1.5t-20 6.5t-26.5 12t-23.5 20t-15.5 29q-8 27 -8 209 q0 254 22.5 505t69.5 329q39 79 39 96q-1 3 -10.5 -6.5t-18.5 -20t-8 -10.5q0 1 -56.5 -38.5t-121.5 -82t-82 -45.5q-2 0 -6 4z" />
<glyph unicode="8" horiz-adv-x="739" d="M102 139q0 68 30.5 169t73.5 197.5t86.5 183t73.5 139.5l31 53q41 88 41 166q0 26 -6 47q-25 86 -133 86h-18q-25 0 -25 14q0 1 -1 3t-1 3q0 6 4 15t8 15l4 5q2 0 6 2q56 14 105 14q115 0 135 -84q6 -18 6 -45q0 -102 -96 -282q-66 -84 -159 -299.5t-93 -356.5 q0 -40 8 -67q14 -49 62 -74q2 -15 7 -29t5 -20q-6 0 -12 4l-39 16q-76 0 -96 72q-7 28 -7 53zM133 1016q0 -27 6 -51q15 -37 41 -58q109 -85 152.5 -150.5t83.5 -215.5q35 -126 35 -222q0 -195 -146 -243q-27 -6 -59 -6h-10q-3 0 -21.5 -7.5t-38.5 -20.5t-20 -24 q3 -16 98 -16h12q40 0 82 10q52 15 97 47t78.5 75.5t54.5 80t43 82.5q16 33 16 94q0 63 -23 150q-31 109 -91.5 214t-135.5 169q-72 62 -94 129q-4 12 -4 34q0 25 10.5 47.5t21.5 31.5l11 10q2 6 2 14q0 10 -2 14q-16 31 -51 31h-11q-31 -8 -63 -43.5t-48 -66.5l-16 -31 q-10 -35 -10 -78z" />
<glyph unicode="9" horiz-adv-x="747" d="M102 881q0 87 66 213q78 143 188 184q32 12 78 12q26 0 51.5 -5t37.5 -10l12 -5l-7 -66q-28 10 -69 10q-39 0 -80 -14q-151 -53 -189 -293q1 -7 4.5 -17.5t4.5 -12.5q35 -93 137 -93q35 0 106 21l31 14q-4 -51 -31 -61l-3 -1q-3 -1 -7 -1q-1 0 -16 -12t-39.5 -27.5 t-48.5 -24.5q-30 -10 -58 -10q-61 0 -114 53q-25 32 -41 72q-13 37 -13 74zM354 483q0 124 17.5 258.5t43.5 239.5t46 172t33 100l10 21h14q99 0 121 -64q2 -4 2 -14q-106 -212 -106 -543q0 -128 15.5 -262t31.5 -204l16 -70q22 22 39 22q8 0 8 -6v-14l-8 -19 q-13 -48 -24.5 -71.5t-32.5 -30.5q-12 -4 -19 -4q-37 0 -74.5 20.5t-64.5 57.5l-8 24q-60 169 -60 387z" />
<glyph unicode=":" horiz-adv-x="440" d="M102 264q0 17 2 25q0 61 23 84.5t63 23.5q18 0 46 -4q33 -10 55.5 -33t31.5 -52t12 -49.5t3 -39.5v-10q0 -3 -0.5 -9t-4 -21t-10 -26t-20.5 -20.5t-33 -9.5q-3 0 -7 1t-7 1q-79 6 -116.5 46t-37.5 93zM102 709q0 16 2 24q0 109 86 109q18 0 46 -4q33 -10 55.5 -34 t31.5 -54t12 -51t3 -40v-10q0 -3 -0.5 -8.5t-4 -20t-10 -25t-20.5 -19.5t-33 -9q-8 0 -14 2q-80 7 -117 46t-37 94z" />
<glyph unicode=";" horiz-adv-x="438" d="M102 764q0 16 2 24q0 103 82 103q19 0 43 -6q31 -9 52 -31t30 -50t12 -48t3 -37v-10q0 -3 -0.5 -8.5t-4 -19t-9.5 -23.5t-19 -18.5t-31 -8.5q-8 0 -12 2q-78 6 -113 42t-35 89zM109 131v10q13 9 31.5 24.5t49.5 51.5t31 59q0 7 -2 11q-8 26 -31 26q-4 0 -11.5 -1 t-10.5 -1q-18 0 -23 19q0 20 19.5 33.5t50.5 13.5q29 0 66 -15q57 -15 57 -65q0 -73 -150 -191q-24 -6 -41 -6q-36 0 -36 31z" />
<glyph unicode="=" horiz-adv-x="710" d="M51 571q0 9 2 13v8q8 26 56 50t96 24h8q71 12 147 12q55 0 101 -8q20 -4 24 -8q58 -20 58 -41l-6 -9q53 -38 53 -73q-4 -30 -58 -39h-16q-64 0 -210 6t-169 10q-86 16 -86 55zM121 838q0 2 1 5t1 5q0 1 1 4t1 4q6 26 56 50t102 24q54 10 133 10q80 0 116 -8q21 -4 23 -6 q57 -17 57 -39q0 -10 -6 -10q53 -39 53 -72q-3 -33 -55 -41h-33q-74 0 -208.5 6t-155.5 10q-86 16 -86 58z" />
<glyph unicode="?" horiz-adv-x="688" d="M102 958q0 201 162 293q51 29 78 29q22 0 84 -20q160 -50 160 -201q0 -134 -119 -348q-64 -117 -156 -250q-44 -59 -70 -139.5t-26 -221.5q0 -55 2 -86q-2 -4 -12 -4q-9 0 -18.5 8t-14.5 16l-6 7q-39 109 -39 246q0 145 57 256q5 9 80 121t103 165q82 164 82 256v17 q-1 40 -23.5 62t-58.5 22q-35 0 -86 -23q-134 -66 -134 -192q0 -37 12 -77t24 -62l12 -21l-64 -23q-29 76 -29 170zM129 -127q2 70 45 70q5 0 16 -2t15 -2q61 -13 61 -93v-10v-5.5t-2 -11.5t-5.5 -14.5t-11.5 -12t-18 -5.5h-10q-90 13 -90 86z" />
<glyph unicode="@" horiz-adv-x="1038" d="M102 678q0 90 43.5 173.5t113.5 144t144 103t148 66.5q47 15 67 19h11q64 0 139 -94t121 -240q47 -143 47 -289q0 -281 -168 -500q-30 -17 -51 -22q-21 -6 -39 -6q-39 0 -53 28q-26 65 -37 99q-39 121 -39 248q0 87 18 168t36 119l18 38l69 -37q-12 -174 -12 -334 q0 -173 18 -233q9 -31 31 -31q25 6 68 97q47 87 47 266q0 226 -66 430q-34 107 -79 169t-97 62q-14 0 -20 -2l-9 -4q-55 -17 -118 -76.5t-118.5 -145.5t-92.5 -204.5t-37 -238.5q0 -118 35 -224q51 -156 159 -280q8 -4 13 -4q1 0 4 1t4 1q15 4 28 26.5t19 42.5l6 21 q7 0 17.5 -1t30.5 -9.5t24 -24.5q0 -11 -6 -23q-74 -72 -140 -94q-21 -8 -49 -8q-115 0 -178 197q-70 225 -70 606zM291 473q0 158 188 303q21 14 39 17q21 6 43 6q25 0 47.5 -10.5t37 -25.5t25 -30.5t15.5 -26.5l4 -10l-96 6q0 11 -2 23q-7 18 -23 18q-8 0 -14 -2l-25 -12 q-70 -52 -103.5 -126t-33.5 -146q0 -39 10 -72q11 -37 35 -51q2 -2 8 -2q5 0 7 2q17 5 41 39t40 65l15 31l53 -10q-2 -7 -6 -18t-17.5 -41t-28.5 -54t-39 -48t-50 -32q-4 -2 -15 -2q-38 0 -82 39.5t-63 99.5q-10 38 -10 70z" />
<glyph unicode="A" horiz-adv-x="716" d="M0 -78q174 1196 221 1231q25 20 32.5 28.5t18.5 18.5q13 10 26 30t20 35l6 15q10 -2 25 -6.5t43.5 -21t35.5 -35.5l14 -105q14 -105 37.5 -268.5t51.5 -338t63.5 -337.5t67.5 -244q4 -12 4 -18q0 -31 -31 -31q-54 0 -137 90q0 1 -11 24t-22 50.5t-25 66t-26 86.5t-19 95 q-24 -9 -233 -74l-12 -4q-6 -32 -15.5 -82t-15 -77t-12.5 -64t-11.5 -57t-9.5 -41t-8 -31t-6 -13q-25 -49 -43 -49q-29 0 -29 111v16zM172 313q138 44 209 74q-69 431 -80 481q-66 -234 -129 -555z" />
<glyph unicode="B" horiz-adv-x="677" d="M0 1274q20 2 47 2q69 0 107 -16q9 -3 13.5 -12t5.5 -26t1 -35.5v-49.5t4 -60q-4 -36 -4 -59q3 7 41 86q37 76 93.5 108.5t109.5 32.5q34 0 45 -8q100 -57 100 -242q0 -143 -51 -307q-15 -44 -32.5 -92t-27.5 -74l-10 -26q5 -3 14 -9t32.5 -25t42.5 -38t39 -45.5t28 -50.5 q29 -82 29 -170q0 -63 -16 -119.5t-49.5 -106.5t-92.5 -85t-139 -48h-8q-24 0 -76 21q0 -6 -4 -6q-38 -23 -62 -23q-27 0 -51 18.5t-38 45.5t-24 54t-14 45l-4 19zM174 803q5 -114 19 -281q35 47 67 100.5t69 130t59 167t22 178.5q0 26 -4 76q-9 6 -17 6q-70 0 -215 -377z M201 420q7 -82 25 -261t22 -241q39 33 73.5 71t72 90t59.5 114t22 124v15q-104 104 -194 104q-41 0 -80 -16z" />
<glyph unicode="C" horiz-adv-x="616" d="M0 397q0 99 8 195q8 108 26.5 201t44.5 158.5t57 119t63.5 87t64.5 58t60 36.5t49.5 19t34.5 8l12 1q4 -1 10 -3t21.5 -11t27.5 -21t21.5 -35t9.5 -51q0 -74 -70 -184q-12 -12 -30 -12q-11 0 -20 4t-9 10t12 12q62 73 62 144q0 30 -10.5 57t-20.5 39l-10 12 q-7 -20 -19.5 -55t-44 -141.5t-55.5 -211t-44 -245.5t-20 -262q0 -216 64 -371l6 -6q33 24 72 88t70.5 138.5t58.5 145t42 117.5l15 47l6 -79q0 -7 -16.5 -69.5t-47 -154t-67 -180t-84 -151t-90.5 -62.5q-10 0 -22.5 2t-39.5 15t-51 35t-52 68t-48 107.5t-33.5 160 t-13.5 220.5z" />
<glyph unicode="D" horiz-adv-x="616" d="M0 1231q3 5 10 13.5t28 22t44 13.5q68 0 133 -113q-8 -84 -10 -133q4 6 21.5 34.5t34 53t37.5 52.5t41.5 45t35.5 18q10 2 28 2q162 0 162 -401q0 -136 -18.5 -306t-36.5 -272l-18 -102q-4 -13 -11 -34t-28.5 -75t-42.5 -95.5t-48.5 -76.5t-50.5 -37h-8q-16 0 -51 13 l2 -13q-26 -39 -59 -39q-46 0 -78 93q-28 86 -57 420t-44 626zM186 399q0 -276 58 -395q83 91 133.5 335.5t50.5 639.5q0 113 -2 174q-8 10 -23 10q-69 0 -206 -350q0 -61 -5.5 -202t-5.5 -212z" />
<glyph unicode="E" horiz-adv-x="600" d="M0 537q0 146 3.5 308.5t6.5 252.5l4 90q0 10 2 21.5t8.5 29t23.5 28.5t42 11q19 0 43 -6q56 -17 122.5 -26t136.5 -13t97 -8q60 -7 60 -101l-6 -63l-389 29q-15 -191 -15 -320q0 -112 15 -115h8q13 0 59 6.5t68 6.5q24 0 39 -6q28 -11 60 -61.5t32 -86.5q0 -22 -10 -29 q-18 -15 -134 -17.5t-129 -18.5q-8 -8 -8 -62t8.5 -148.5t16.5 -162.5l8 -68q102 10 182 10q36 0 68 -4q49 -10 49 -98l-4 -51q-262 -70 -328 -70q-19 3 -44.5 34.5t-41.5 62.5l-16 30q-37 144 -37 615z" />
<glyph unicode="F" horiz-adv-x="890" d="M2 1183q0 29 300 64q303 36 425 35h14q45 -5 72 -28t27 -60q0 -11 -4 -31q-13 -55 -68 -55h-10l-367 -16q-24 -269 -24 -353q0 -22 3 -24q2 -4 21 -4t89 7t100 7q42 0 49 -10q4 -8 4 -29q0 -29 -18 -61.5t-36 -50.5l-18 -17l-180 -41q-12 -223 -11 -426q0 -207 15 -283 q-24 -8 -33 -8q-30 0 -61 31q-30 37 -53 176.5t-35 313t-19.5 342t-9.5 282.5l-2 113q-18 -6 -43 -6q-47 1 -83 29q-44 36 -44 103z" />
<glyph unicode="G" horiz-adv-x="731" d="M0 322q0 135 23 271.5t70 270t131 244t194 170.5q64 -9 108.5 -39.5t65 -74.5t29 -85t8.5 -86q0 -24 -2 -47.5t-4 -35.5l-2 -11q-21 -6 -50 -6q-82 0 -118 70q-7 21 -7 63q0 15 1.5 43t1.5 39q0 48 -25 53q-8 1 -34 -51t-60.5 -144t-67 -201.5t-54.5 -242t-22 -246.5 q0 -168 50 -288q55 6 96 48t60.5 98.5t31 112t12.5 93.5l2 39q-5 3 -12 8t-19 22t-12 35q0 11 2 17q6 19 51.5 29t102.5 10q94 0 100 -21q7 -27 14.5 -182t10.5 -297l4 -141q-4 -6 -11 -16t-27 -26t-38 -16t-33 15q-32 32 -55.5 100.5t-30.5 157.5q-19 -46 -51 -80.5 t-63.5 -52t-69 -28t-61 -13t-45.5 -2.5h-21q-5 2 -14.5 6.5t-34 23t-44.5 42.5t-40.5 67.5t-28.5 95.5q-12 85 -12 189z" />
<glyph unicode="H" horiz-adv-x="788" d="M0 1237q62 27 117 27q74 0 82 -66q4 -50 4 -194q0 -45 -1 -166t-1 -191q235 31 313 55q4 129 11.5 266t12.5 209l5 72q35 29 78 29q74 0 116 -113q-61 -143 -61 -759q0 -140 3 -291.5t6 -233.5l3 -82q-10 -4 -24 -4q-70 0 -127 119q-33 65 -33 387q0 151 6 307 q-218 -64 -311 -71l-13 -693q-14 -6 -32 -6q-75 0 -103 99q-16 58 -29 383t-18 621z" />
<glyph unicode="I" horiz-adv-x="258" d="M0 649q0 600 16 613q38 18 66 18q25 0 47 -12.5t35.5 -30t23 -35.5t13.5 -30l4 -13q2 -4 2 -12q0 -18 -17 -37q-16 -16 -16 -627l4 -680q-18 -10 -43 -10q-88 0 -115 139q-20 109 -20 717z" />
<glyph unicode="J" horiz-adv-x="468" d="M0 172q0 31 4 33q18 12 27 12q12 0 12 -18v-6q1 -11 4 -28.5t14.5 -62.5t26.5 -79.5t42 -62.5t60 -28q29 0 50.5 24.5t33 67.5t16.5 92t5 107q0 55 -2 82q-8 161 -24.5 382t-28.5 362l-13 141q-88 -80 -133 -125q-21 -18 -33 -18q-8 0 -14 6t-8 12l-2 6q14 19 37.5 49 t74.5 85.5t78 68.5q40 8 58 8q32 0 57 -10t38.5 -24.5t23 -29t12.5 -24.5l2 -10q-17 -1169 -35 -1247q-20 -80 -60.5 -110t-95.5 -30q-61 0 -108 44t-71.5 108.5t-36 122.5t-11.5 100z" />
<glyph unicode="K" horiz-adv-x="817" d="M0 1159q0 109 12 115q16 4 31 4q49 0 93 -29t44 -86v-8l-10 -375q219 269 291 355q38 47 97 97t95 50q33 0 33 -49v-12q-25 -52 -121.5 -184t-180.5 -237l-83 -106q16 -31 42.5 -84t97.5 -190.5t129 -247t116 -209t80 -121.5q-34 -39 -74 -39q-36 0 -74.5 28.5 t-59.5 56.5l-21 28q5 -8 -65.5 134.5t-145.5 280.5t-90 138q-14 0 -23.5 -69.5t-12.5 -139.5l-3 -70q10 -67 10 -118q0 -44 -10 -52q-33 -30 -54 -30q-15 0 -24.5 14t-18 37t-14.5 31q-18 21 -52 445.5t-34 641.5z" />
<glyph unicode="L" horiz-adv-x="501" d="M0 610q0 147 6 304.5t12 241.5l7 85q40 37 79 37q66 0 76 -123q-33 -255 -33 -506q0 -353 62 -710q54 63 114 164t93 223q8 0 17 -11t13 -23l5 -11q-144 -261 -228 -443q-2 -11 -25 -25t-51 -14q-14 0 -22 2q-125 141 -125 809z" />
<glyph unicode="M" horiz-adv-x="950" d="M0 770q0 367 12 373q10 4 34 32.5t44 28.5h10q45 0 80 -51q0 -2 1 -7t3 -14.5t4 -17.5q11 -26 11 -39q77 -315 161 -635q84 -318 103 -317q15 -1 75 273q60 270 114 540l53 270q2 3 5 8t13 18.5t21 23.5t28 18t35 8q16 8 35 8q11 0 21.5 -2.5t14.5 -5.5l5 -2 q-4 -349 -4 -674q0 -541 14 -555q6 -6 6 -22q0 -25 -12 -55t-39.5 -55t-63.5 -25q-28 0 -59 16q-6 5 -11 178.5t-5 388.5q0 31 1 95t1 96q-154 -597 -156 -803q-6 -10 -26.5 -20.5t-45.5 -10.5q-105 0 -190 182q-34 59 -119 396l6 -598q-30 -17 -65 -17q-58 0 -76 58 q-19 61 -29 338.5t-10 576.5z" />
<glyph unicode="N" horiz-adv-x="833" d="M0 500q0 501 18 510l7 4q8 16 14 20q27 23 51 23q31 0 70 -33l24 -49q20 -23 27 -51q403 -799 431 -799h1q12 6 12 240q0 139 -4 344t-8 340l-4 135l2.5 10t8.5 22.5t16 29t24 22.5t33 10q20 0 49 -16q2 -4 2 -41q0 -36 -11 -342t-11 -500q0 -331 30 -473 q-4 -14 -27.5 -30.5t-56.5 -16.5q-91 0 -194 131q-59 74 -314 588v-146l5 -635q-21 -8 -48 -8q-92 0 -124 117q-23 88 -23 594z" />
<glyph unicode="O" horiz-adv-x="651" d="M0 332q0 122 26.5 261.5t68 257t87.5 215.5t89 154t69 56t62 -21.5t36 -44.5q14 -22 25 -41t39 -83t47 -128t35 -164.5t16 -203.5q0 -391 -211 -801q-12 0 -16 4q-8 -4 -17 -4h-8q-95 25 -164 77.5t-108 126t-57.5 157t-18.5 182.5zM248 428q0 -88 9.5 -172.5t23 -141.5 t27 -101.5t22.5 -65.5l10 -21l4 -8q28 47 55 105t61 149.5t54.5 208.5t20.5 237q0 292 -125 562q-162 -380 -162 -752z" />
<glyph unicode="P" horiz-adv-x="739" d="M0 1229q20 4 47 4q118 0 162 -90q-12 -85 -12 -279q147 384 215 398q41 16 82 16q71 0 122 -51q16 -3 29 -13q43 -76 43 -194q0 -156 -71 -331.5t-184 -296t-222 -120.5l25 -477q-7 -2 -17 -2q-86 0 -106 94q-36 110 -64 445.5t-39 615.5zM203 502l4 -115q49 52 95.5 111 t106 149.5t96 195t36.5 201.5q0 58 -15 113h-10q-11 8 -24 8q-36 0 -78 -66.5t-82.5 -178.5t-70 -210t-58.5 -208z" />
<glyph unicode="Q" horiz-adv-x="821" d="M0 369q0 99 26 208.5t70 209t103.5 191t124 158.5t134.5 106.5t132 39.5q87 0 149 -74q18 -7 27 -34q4 -12 4 -46q0 -111 -31 -300t-98 -369q37 -484 119 -649q-3 -13 -31 -13t-63.5 16.5t-76 51.5t-77 103t-55.5 157q-69 -84 -152 -141q-10 -45 -53 -45q-13 0 -21 2 q-11 3 -16 10q-215 123 -215 418zM182 319q0 -194 43 -194q4 0 14 -6.5t17 -13.5l8 -7q10 7 27 20t64.5 62.5t90.5 108.5q-4 152 -4 237q0 118 13 498v29q-6 2 -19 2q-61 0 -111.5 -76t-80.5 -191t-46 -238t-16 -231zM606 1182q27 -27 27 -58q0 -8 -4 -24q-8 -27 -8 -174 q0 -117 6 -264q71 226 71 503q-36 19 -65 19q-19 0 -27 -2z" />
<glyph unicode="R" horiz-adv-x="856" d="M0 1202q0 75 6 78q10 2 29 2q36 0 64 -12.5t42.5 -30t23.5 -35.5t11 -30l2 -13q4 -71 10 -180q9 16 29.5 45t24.5 35q135 174 247 174q29 0 54 -10q98 -42 98 -164q0 -68 -30 -161.5t-66 -167.5t-67 -139.5t-32 -82.5q0 -43 90 -191t179.5 -288.5t89.5 -163.5 q-6 -29 -33 -29t-74 27.5t-80 55.5l-34 28q-234 327 -361 479q39 -572 51 -621q-17 -10 -30 -10q-22 0 -52.5 35t-85.5 129q-29 65 -67.5 542.5t-38.5 698.5zM203 750l14 -232q32 34 63 70t72.5 92t71.5 109t51 116.5t21 118.5q0 93 -60 156q-29 0 -62 -40t-64.5 -107.5 t-57 -136.5t-49.5 -146z" />
<glyph unicode="S" horiz-adv-x="598" d="M0 84q0 106 37 119q4 2 10 2q12 0 12 -21q0 -8 -3 -40t-3 -54q0 -55 21 -104q0 -1 1 -3t1 -3q5 -19 10 -30t18.5 -20.5t34.5 -9.5q33 0 107 27q22 8 22 69q0 65 -31 228t-62.5 354t-31.5 324q0 207 78 290q104 62 170 62q40 0 69.5 -19.5t45.5 -47.5t26 -65.5t12.5 -65.5 t2.5 -56l-2 -35q0 -8 -1 -21.5t-4 -49.5t-8 -64t-14.5 -53.5t-21.5 -30.5q-24 -12 -33 -12q-10 0 -10 14q0 7 15 71t15 115v17q-3 80 -29 129t-61 49q-26 0 -49 -29q-49 -60 -49 -205q0 -114 32.5 -299.5t64.5 -365t32 -279.5q0 -153 -74 -178q-39 -10 -84 -10 q-58 0 -106 22t-75.5 53.5t-46.5 62.5t-26 53l-6 22q-6 41 -6 88z" />
<glyph unicode="T" horiz-adv-x="747" d="M0 1196q658 84 834 84q7 0 17 -1t13 -1q45 -6 86.5 -30t60.5 -45l19 -21q8 -22 8 -47q0 -22 -8 -35q-13 -21 -186 -21l-215 6q-6 -26 -16 -75.5t-26 -216.5t-16 -349q0 -299 43 -637q-19 -8 -39 -8q-32 0 -57.5 22t-39 53.5t-22.5 63.5t-12 54l-2 22q-10 65 -25 173.5 t-40 386.5t-25 487v16q-6 6 -22 6q-18 0 -94 -16t-119 -16h-13q-27 2 -48 17.5t-31 36.5t-16.5 41.5t-7.5 35.5z" />
<glyph unicode="U" horiz-adv-x="876" d="M0 872q0 139 8 295q3 55 21 86t45 31q10 0 22 -6q135 -71 135 -154q-4 -58 -4 -184q0 -532 78 -834q36 61 72.5 146.5t81 221t72.5 318.5t28 377v70q46 35 88 35q34 0 63 -21.5t42 -42.5l12 -22q-19 -282 -19 -588q0 -577 80 -731q0 -18 -24.5 -36t-48.5 -27l-25 -9 q-4 2 -11 6.5t-26.5 23.5t-37.5 44t-40 71t-37.5 100t-26.5 135.5t-11 174.5q0 11 1 34t1 36q-15 0 -60 -114t-83 -228l-38 -115q0 -14 -21.5 -22.5t-49.5 -8.5q-25 0 -37 5q-50 11 -90.5 57t-67 120t-45.5 161t-29 192.5t-14 201.5t-4 201z" />
<glyph unicode="V" horiz-adv-x="915" d="M0 1083q0 35 10.5 64t28.5 39q24 12 43 12q43 0 82 -55q2 -6 31.5 -125t67.5 -268.5t79 -303.5q40 -152 72 -256q31 -102 41 -102q15 0 77 280q62 278 116 554l54 276q4 9 12.5 22.5t34.5 35.5t52 22q28 0 61 -29q1 -23 -47 -204.5t-106.5 -398.5t-108 -457.5 t-51.5 -364.5q-5 -11 -26.5 -22t-47.5 -11q-105 0 -199 184q-36 74 -121 420t-149 639q-6 24 -6 49z" />
<glyph unicode="W" horiz-adv-x="1105" d="M0 571q0 147 6 301.5t12 235.5l7 82q30 24 63 24q40 0 55 -45q13 -34 28.5 -308.5t32.5 -529t36 -257.5q35 24 73.5 122.5t68 221.5t54 242.5t38.5 200.5l13 81q0 3 1 8.5t3.5 23t5 34t7.5 39.5t10 42.5t11.5 39t13.5 33.5t16 23t18 9q25 0 59 -76q0 -1 -1.5 -19.5 t-1.5 -35.5q0 -228 17.5 -575.5t43.5 -354.5q35 18 71.5 176.5t61 339.5t49.5 339.5t39 174.5q59 117 109 117q10 0 19 -4.5t13 -9.5l3 -4q-1 -14 -3 -38.5t-9 -99.5t-14 -148.5t-17 -174.5t-20 -189.5t-22 -181t-22.5 -161t-22 -118.5t-20.5 -63q-36 -53 -72 -73.5 t-79 -20.5q-4 0 -12.5 1t-12.5 1q-14 -2 -39 -2q-53 0 -96.5 15.5t-70.5 38t-47 54.5t-29.5 59.5t-15 58.5t-6.5 45t-1 26q-3 -10 -8 -27.5t-20.5 -67.5t-31 -96t-38 -102t-43.5 -96t-44.5 -67.5t-43.5 -27.5q-113 0 -129 62q-66 241 -66 702z" />
<glyph unicode="X" horiz-adv-x="813" d="M0 1145q3 5 9.5 14t27 31t43 39t58 31t71.5 14q32 0 59 -8q98 -21 172 -308q13 19 29 43.5t26 39.5t15 22q51 67 86 67l12 -2q-63 -116 -147 -266q35 -167 59.5 -386t31.5 -354l7 -136l170 501l33 -24l-49 -205q-121 -465 -197 -465q-67 10 -106.5 85t-63.5 206 q-1 4 -18.5 80t-34.5 178.5t-21 200.5q-170 -283 -190 -289q-16 -4 -21 -4q-36 0 -36 65v11q143 202 247 364q-36 205 -157 471q-4 2 -15 2q-17 0 -30 -12.5t-17 -25.5l-4 -13z" />
<glyph unicode="Y" horiz-adv-x="704" d="M0 1188q0 24 32 42.5t74 18.5q83 0 138 -69q44 -56 87.5 -164t64.5 -188l22 -80q1 7 3 18.5t9 48t15 71.5t20 82.5t24 88.5t27.5 83t30.5 71.5t33.5 48t35.5 18.5q20 0 33 -16q4 0 4 -23q0 -93 -53 -395l-6 -33q-45 -276 -45 -422q0 -539 8 -598q-2 0 -7 -1t-7 -1 q-25 0 -45 15t-31.5 36.5t-19.5 42.5t-11 36l-2 15q-57 529 -80 586q-26 60 -140 277.5t-210 376.5q-4 8 -4 14z" />
<glyph unicode="Z" horiz-adv-x="763" d="M0 -57q0 107 58.5 253.5t142 286.5t166.5 272.5t141.5 246t58.5 172.5q-5 22 -106 22q-44 0 -101 -4t-92 -8l-35 -4l21 41q12 7 35 17t96.5 27t149.5 17q119 -12 163 -123q15 -34 15 -76q0 -84 -50 -212.5t-121.5 -259t-143 -256.5t-121.5 -233.5t-50 -160.5q0 -19 6 -31 q5 -8 35 -8q45 0 140.5 17.5t167.5 34.5l73 18l-6 -35q-102 -26 -129 -61q-21 -25 -58.5 -44t-75.5 -28.5t-73.5 -15.5t-57.5 -8l-22 -1q-9 0 -24.5 1.5t-54.5 9t-69 20t-54.5 39t-24.5 61.5v13z" />
<glyph unicode="a" horiz-adv-x="624" d="M0 250q0 108 33 229q30 116 68.5 202.5t72.5 133t72 74.5t63.5 35.5t50.5 7.5l33 -4q45 -4 51 -119q82 -5 82 -49q0 -8 -8 -148t-8 -215q0 -108 16 -108q32 0 83 143.5t87 287.5l35 144l33 -16q-147 -811 -186 -811q-13 0 -43.5 -8.5t-51.5 -8.5q-23 0 -47 9 q-67 27 -98 305q-83 -291 -164 -324q-10 -2 -31 -2q-15 0 -39 4q-39 11 -55 39q-1 -2 -6 5t-12 23t-14 38.5t-12 57.5t-5 75zM193 434q151 200 151 395v17q-13 -13 -26.5 -39.5t-31.5 -77.5t-28 -82.5t-33.5 -109.5t-31.5 -103zM338 854q0 -6 6 -6q0 3 -1 9t-1 9 q-4 -4 -4 -12z" />
<glyph unicode="b" horiz-adv-x="649" d="M0 1174q0 13 3 29t6 26l3 10q65 39 131 39q51 0 84 -33q11 -56 11 -309v-195q136 119 217 119q50 0 75 -45q36 -57 43 -237q19 33 45 75t67 94.5t60 55.5q9 -9 9 -25t-7 -36.5t-13 -33.5l-7 -12q-88 -159 -154 -270q-6 -95 -20 -178.5t-38 -156t-63 -115t-87 -42.5 q-11 0 -23 3l4 12q-59 21 -59 84q0 40 24 92q17 55 193 342q2 16 2 51q0 140 -47 250q-2 2 -8 2q-51 0 -215 -405q0 -324 18 -361q-31 -49 -84 -49q-45 0 -90 45q-64 67 -64 510q0 133 6 287.5t12 242.5l5 88q0 1 -27 15q-12 6 -12 31zM381 41q65 123 100 268 q-100 -100 -100 -268z" />
<glyph unicode="c" horiz-adv-x="649" d="M0 299q0 119 35.5 244.5t87 208.5t98.5 100q18 6 35 6q33 0 53.5 -28t27.5 -62t7 -72q0 -49 -8 -57q-21 -21 -35 -21q-3 0 -6 3q14 22 14 51q0 22 -7.5 46t-15.5 37l-7 13q-9 -29 -23 -77.5t-37.5 -168t-23.5 -203.5q0 -146 65 -184q12 -6 27 -6q45 0 103.5 71.5 t110.5 173t97.5 203t72.5 173.5l27 71l15 -26q-186 -597 -209 -652q-27 -65 -66 -110.5t-79 -66.5t-71 -29.5t-57 -8.5h-10q-75 4 -123 62q-98 112 -98 309z" />
<glyph unicode="d" horiz-adv-x="749" d="M0 256q0 131 87 258t165 154q47 28 104 28q19 0 47 -4q19 143 46.5 290.5t44.5 223.5l18 76q5 0 13.5 -0.5t30 -5.5t38 -13.5t30 -27t13.5 -43.5q0 -3 -1 -8t-1 -8q-76 -486 -76 -840q0 -114 8 -213.5t19.5 -162.5t24.5 -109.5t23.5 -67t16.5 -21.5q36 15 67.5 168 t45.5 299l14 146l33 -74q-45 -613 -92 -633q-37 -16 -105 -16q-82 0 -102 29q-145 122 -145 538v39q-119 -256 -156 -256q-10 -2 -35 -2q-10 0 -21 0.5t-17 1.5h-7q-131 101 -131 254zM233 354q82 58 150 162q2 37 10 102q-40 -9 -71.5 -43t-49.5 -81t-26 -79t-13 -61z" />
<glyph unicode="e" horiz-adv-x="499" d="M0 424q0 224 162 422q19 27 61 59.5t82 32.5q13 0 19 -2q49 -11 49 -84q25 -4 44 -21.5t19 -54.5q0 -57 -55 -151q-73 -128 -182 -248v-8q0 -48 14 -108t41 -60q25 0 101 84t139 168l63 84q4 4 8 4q8 0 8 -31q0 -40 -93 -233t-128 -209q-61 -56 -123 -56 q-34 0 -65.5 15.5t-46.5 30.5l-15 16q-4 6 -11 17t-24.5 47t-31 74.5t-24.5 96.5t-11 115zM209 461q45 52 79 118.5t34 108.5q0 24 -13 37q-80 -155 -100 -264z" />
<glyph unicode="f" horiz-adv-x="598" d="M0 172q0 172 6 361t12 292l5 103q34 6 77 6q142 0 142 -88v-8l-13 -138l295 150q19 4 37 4q37 0 37 -23q0 -15 -73.5 -72.5t-157.5 -105.5q43 -94 43 -493q0 -299 -22.5 -574.5t-49.5 -275.5q-6 -7 -16.5 -17.5t-42.5 -28.5t-64 -18q-59 0 -115 62q-100 112 -100 864z M209 137q0 -452 67 -690q48 66 48 422q0 314 -33 743q-31 -15 -68 -26q-14 -238 -14 -449z" />
<glyph unicode="g" horiz-adv-x="749" d="M0 399v25q0 52 4 102.5t16.5 116t33.5 122.5t57 116.5t83.5 105t118 80.5t156.5 49q14 0 26.5 -5.5t12.5 -14.5q0 -7 -6 -13q47 -20 86 -57q5 -5 23 -22.5t23 -23t17.5 -20.5t17 -24.5t9 -24t4.5 -28.5q0 -26 -8 -47q-43 -117 -114 -410.5t-71 -476.5q0 -120 39 -162 q11 -3 65 151t104 309.5t51 155.5q34 0 38 -18q0 -38 -104 -374.5t-117 -364.5q-2 -4 -2 -19q0 -12 3 -40t3 -38v-8q-2 -14 -25 -28.5t-59 -14.5q-59 0 -125 39q-75 35 -75 621q0 33 1 85t1 70q-57 -112 -123 -118h-12q-49 0 -85.5 39t-51.5 84t-15 81zM133 621 q0 -42 4 -82.5t8 -61t5 -20.5q46 48 98 136.5t96 189.5t70.5 165.5t46.5 120.5q-79 -4 -139.5 -35.5t-95.5 -77t-56.5 -106.5t-29 -115.5t-7.5 -113.5z" />
<glyph unicode="h" horiz-adv-x="800" d="M0 176q0 237 74 1061l10 117q18 6 43 8q21 0 40 -6t39.5 -22t32.5 -50.5t13 -83.5v-14q0 -71 -35 -596q20 46 31 70t31.5 67.5t36 68.5t34.5 52.5t37 40t35 12.5q154 0 174 -328q4 -102 4 -196q0 -39 -1 -114.5t-1 -108.5q10 -17 18 -17q28 0 77.5 129.5l99 259 t75.5 129.5q7 0 18 -15.5t18 -30.5l7 -15q-203 -365 -307 -598q-3 -3 -6 -11t-6 -12q-20 -14 -51 -14q-68 0 -121 98q-25 49 -25 156q0 95 23.5 289t23.5 243q0 57 -18 60q-4 8 -8 8q-16 0 -51 -49.5t-71.5 -120.5t-64.5 -160t-28 -157q0 -25 -2 -72t-2 -68q0 -50 1.5 -98 t3.5 -71l1 -23q-29 -14 -66 -14q-98 0 -133 131q-4 8 -4 65z" />
<glyph unicode="i" horiz-adv-x="399" d="M0 303q0 118 21 257.5t42 219.5l21 80h6q16 0 35 -1.5t45.5 -6.5t43.5 -16.5t17 -28.5q0 -2 -8 -81.5t-15 -154t-13.5 -169.5t-6.5 -152q0 -78 13 -84q41 94 84 176.5t76 132.5t60 87t41 52l15 15q19 -15 19 -29q0 -8 -13 -18q-21 -12 -60.5 -95t-53.5 -133 q-98 -337 -152 -379q-31 -28 -74 -28q-33 0 -63 20q-80 111 -80 336zM109 1178q0 32 8 80.5t16 81.5l8 32q45 25 88 25q76 0 86 -92q-4 -29 -6 -59.5t-4.5 -46.5t-7.5 -32q-5 -17 -37 -31.5t-61 -19.5l-29 -6q-18 0 -49 23q-12 9 -12 45z" />
<glyph unicode="j" horiz-adv-x="464" d="M0 639q5 11 13 29.5t31 66.5t43 85.5t43.5 70.5t37.5 37q27 6 53 6q52 0 84.5 -27t39.5 -53l7 -27q-43 -801 -43 -1081q0 -93 6 -96h1q11 0 38 79q27 81 54.5 167t37.5 92q4 2 9 2q10 0 10 -15l-2 -14q-2 -17 -5.5 -46t-14.5 -105.5t-22.5 -137.5t-27.5 -118t-31 -72 q-11 -15 -43 -30t-65 -15q-42 0 -75.5 31t-47.5 104q-4 12 -4 86q0 131 15.5 431.5t31.5 535.5l16 235l-153 -221h-37zM205 1174l10 210q6 0 15.5 -0.5t34.5 -3.5t44.5 -9t35 -18.5t15.5 -29.5q0 -4 -4 -16q-11 -30 -20 -67t-15.5 -53t-17.5 -20q-4 -2 -12.5 -6.5t-12 -6.5 t-10 -4.5t-12 -3.5t-12.5 -1q-14 2 -23.5 9t-12.5 14z" />
<glyph unicode="k" horiz-adv-x="598" d="M0 41v8q29 103 29 674l-6 553q15 2 38 2q147 0 166 -88q2 -12 2 -33q0 -16 -2 -26t-4 -13l-2 -2q-17 -249 -31 -516q106 125 183 125q13 0 33 -8l6 -4q28 -28 28 -99q0 -67 -24.5 -144.5t-55.5 -113.5q-19 -24 -45 -47q96 -42 103 -78q-2 -16 -2 -51q0 -71 14.5 -160 t33 -149.5t30.5 -60.5q34 16 77 109t69 178l26 85l10 -26l-80 -363q-1 -6 -2.5 -15.5t-9 -34t-18 -43.5t-29.5 -34.5t-43 -15.5q-13 0 -19 2q-32 7 -63.5 36.5t-65.5 91t-65 175t-54 268.5l-12 23l-41 -17q-2 -53 -2 -143t4 -117q-21 -12 -49 -12q-45 0 -86 27.5t-41 56.5z M180 393q26 15 50.5 33t56.5 48t51.5 70.5t19.5 84.5q0 4 -1 11t-1 11q-88 -14 -176 -237v-21z" />
<glyph unicode="l" horiz-adv-x="425" d="M2 1260q-1 1 11.5 5.5t35.5 8.5t45 4q93 0 129 -61v-21q0 -39 -13 -372t-13 -478q0 -154 14 -160q22 1 55.5 49t64.5 116t59.5 135.5t45.5 115.5l17 47q8 -16 8 -45q0 -26 -8 -53q0 -2 -4 -10q-166 -523 -238 -545q-4 0 -12 -1t-11 -1q-31 0 -57.5 12t-42.5 29t-27 34.5 t-15 29.5l-5 12q-16 1149 -39 1149z" />
<glyph unicode="m" horiz-adv-x="999" d="M0 113q41 229 41 438q0 121 -10 209q-5 54 -11 96t-9 57l-3 15q20 8 47 8q77 0 129 -72q45 -57 68 -182q59 102 116 183.5t83 82.5q54 -2 91 -35t52 -78t22.5 -90t12 -77t12.5 -33t24.5 24.5t36.5 63t41.5 75.5t45 65t42.5 28h11q39 0 63.5 -27.5t44.5 -72.5 q16 -34 23 -135t16 -345q4 -136 4 -215q0 -50 -1 -146t-1 -138q0 -158 8 -226q-23 -10 -51 -10q-145 0 -145 432q0 153 20.5 413.5t20.5 307.5q0 18 -1.5 31.5t-4.5 20t-7 5.5q-71 -52 -113 -144t-54 -187t-15 -182.5t-5 -144t-17 -58.5q-61 -50 -105 -50q-6 0 -26 5 q-37 13 -57.5 106t-20.5 203q0 67 4 94q5 44 17 133t18 146t6 92q0 53 -17 53q-29 -1 -81 -102t-97 -236q2 -29 2 -94q0 -160 -24 -391q-44 -13 -78 -13q-30 0 -65.5 9t-67.5 32.5t-35 55.5z" />
<glyph unicode="n" horiz-adv-x="724" d="M0 858q0 23 15 38t38.5 21t37 7.5t24.5 1.5l28 -105q8 10 21 27.5t50 61t70 77t71 61t63 27.5q123 -10 177 -89.5t54 -219.5v-27q-2 -33 -2 -100q0 -188 19.5 -411t39.5 -352l19 -128q0 -76 -76 -82q-25 0 -53 22.5t-60 85t-57.5 158t-42 258t-16.5 367.5q0 189 14 399 h-1q-25 0 -50 -48q-26 -49 -47.5 -128t-41.5 -174.5t-35 -191t-26.5 -175t-17.5 -129.5l-6 -49q-4 -7 -11 -17.5t-27.5 -28t-39.5 -17.5q-52 0 -90 119q-20 23 -28 182t-9.5 346t-3.5 213z" />
<glyph unicode="o" horiz-adv-x="675" d="M0 367q0 117 21 211t51.5 152t73 101t77 62.5t73 31t52 12.5t21.5 1q13 0 33.5 -31t43 -95.5t31.5 -141.5q65 20 131 44.5t100 39.5l33 14v-53q-5 -5 -14.5 -14t-38 -33t-58 -45.5t-70.5 -45.5t-79 -38q-3 -70 -18 -146q-9 -43 -24 -88.5t-39.5 -102.5t-62 -102.5 t-81.5 -66.5q-39 -19 -57 -19q-6 0 -24 3t-34 3q-10 0 -22 3.5t-35 23t-40 53.5t-30.5 103.5t-13.5 163.5zM145 184q21 13 42.5 29.5t50.5 48.5t52.5 70t44.5 94.5t30 120.5q-25 21 -46 56.5t-29 60.5l-9 26q0 5 1 14t5.5 32t11.5 41.5t21.5 34.5t33.5 19l-6 39 q-56 -22 -96.5 -98t-61.5 -185t-31 -204.5t-14 -198.5z" />
<glyph unicode="p" horiz-adv-x="624" d="M0 795v10q90 47 158 47q75 0 75 -76q0 -11 -4 -39q-14 -74 -18 -268q56 169 112.5 304t88.5 151q30 16 67 16q26 0 49 -12t46.5 -41.5t37 -91.5t13.5 -150q0 -249 -109 -684q-5 -10 -41 -10q-79 0 -252 41q4 -98 10.5 -198t10.5 -151l4 -51q-29 -12 -66 -12 q-72 0 -114 62q-23 32 -38 195t-21 386.5t-7.5 350t-1.5 221.5zM223 72q4 0 17 -1t22 -1q50 0 86 10q99 59 119 762q-65 -21 -244 -770z" />
<glyph unicode="q" horiz-adv-x="825" d="M0 -319q28 9 74 21.5t157 34.5t185 23q6 126 24 250l-24 8q-56 17 -85 28.5t-65 38t-59 65.5q-25 41 -25 184q0 77 9.5 154t34 160t61.5 146t99 103.5t140 40.5q60 0 121 -20q113 -39 113 -56q0 -8 -29 -22q94 -55 94 -115q-179 -588 -186 -1047q123 -121 123 -434 q0 -51 -3.5 -102.5t-6.5 -77.5l-4 -25q-6 -6 -16.5 -15.5t-43 -25.5t-63.5 -16q-54 0 -99 45q-112 272 -112 635v43h-19q-59 0 -142 -15.5t-137 -30.5l-53 -15zM381 305q12 -4 20 -4q52 0 119 113q50 196 127 401q-10 2 -31 2q-58 0 -102 -36.5t-68 -89.5t-39.5 -127 t-20 -134t-5.5 -125zM639 -438q8 -221 57 -391q4 58 4 98q0 183 -61 293z" />
<glyph unicode="r" horiz-adv-x="573" d="M0 827q0 123 72 328q31 25 51 25q19 0 33.5 -16.5t19.5 -33.5l4 -16q-10 -133 -10 -231q0 -103 14 -103q21 0 39.5 11t28.5 24t23 24t24 11q24 6 45 6q133 0 133 -231q0 -79 -15.5 -178t-30.5 -159l-15 -59q8 9 22.5 25.5t55 70.5t75.5 111.5t74.5 144.5t63.5 173 q2 2 6 2q8 0 18.5 -15t16.5 -30l6 -15q-260 -467 -342 -680q-40 -18 -72 -18q-40 0 -75 23t-51 46l-15 23l69 569q-53 -20 -110 -20q-158 0 -158 188z" />
<glyph unicode="s" horiz-adv-x="268" d="M0 -61q0 12 16 12h11q65 0 67 61q8 16 8 58q0 65 -30 249q-6 37 -25 117.5t-31 150.5t-12 130q0 59 16 121q54 184 130 184l20 -4q23 -93 25 -195q0 -24 -9.5 -121t-9.5 -129q0 -4 1 -10.5t1 -9.5q1 -5 27 -139q4 -30 8 -43q55 -259 55 -363q0 -97 -43 -114 q-54 -25 -100 -25q-70 0 -113 49q-12 12 -12 21z" />
<glyph unicode="t" horiz-adv-x="475" d="M0 999q59 7 141 13l15 170q30 6 65 6q105 0 107 -64l-9 -100q88 6 164 6q98 0 101 -14q4 -16 4 -21q0 -9 -4 -14.5t-8 -6.5l-3 -1q-127 -2 -256 -6q-18 -295 -18 -488q0 -381 66 -407h1q22 0 57 106q36 108 61 218l26 110l37 -21q-3 -19 -9.5 -51.5l-23.5 -117.5 t-33 -152.5t-35 -129t-32 -75.5l-15 -14q-19 -19 -28 -27.5t-26 -17.5t-32 -9q-34 0 -77 48q-111 167 -111 671q0 152 12 348q-74 -3 -84 -6q-1 0 -4 -1t-4 -1q-14 0 -25 12t-16 24z" />
<glyph unicode="u" horiz-adv-x="774" d="M0 201q0 100 10 241.5t20 233.5l11 92q58 29 113 29q94 0 94 -105q0 -65 -18.5 -239.5t-18.5 -227.5q0 -63 16 -63q19 6 63.5 152.5t93 301t77.5 175.5q24 8 51 8t48.5 -10t33.5 -24.5t20 -29.5t10 -25l3 -10q-27 -296 -27 -544q0 -332 61 -332h1q16 3 66 161.5t92 316.5 l42 157l41 -15q-172 -766 -221 -766q-32 -14 -66 -14q-44 0 -79.5 30t-58 75t-39.5 108.5t-25.5 120t-13.5 120.5t-6 99t-1 66v16q0 -8 -27.5 -109t-71 -209t-75.5 -108q-29 3 -60.5 12.5t-65.5 28t-56.5 52.5t-24.5 77q-12 42 -12 158z" />
<glyph unicode="v" horiz-adv-x="604" d="M0 810v30q102 41 176 41q69 0 72 -47q1 -5 6 -62t9 -96.5t11.5 -106t14 -113t14.5 -94.5q9 -47 17 -72q9 -26 16 -26q17 0 52 152q35 154 68 322t42 184q8 18 34 18q15 0 33 -5.5t29 -10.5l10 -6q-6 -20 -15.5 -56t-33.5 -140.5t-43 -202t-34 -220t-15 -215.5v-37 q0 -36 -26 -57t-62 -21q-3 0 -9.5 1t-9.5 1q-56 1 -104.5 31.5t-82.5 81t-61.5 115.5t-45 137t-30 143.5t-18.5 136.5t-9.5 115t-4.5 79z" />
<glyph unicode="w" horiz-adv-x="937" d="M0 287v53q0 484 59 524q27 21 56 21q31 0 64.5 -21t50.5 -42l18 -21q-51 -259 -51 -363q0 -40 10 -43q11 -2 33 43.5t48 111.5t52.5 133.5t52.5 117.5t43 55q21 6 39 6q36 0 59.5 -23t29.5 -46l5 -23q-51 -467 -51 -600q0 -35 4 -35q44 0 117 225q29 87 88 321t72 273 q16 53 28 62q4 4 19 4q28 0 60 -24.5t32 -51.5q0 -1 -1 -4t-1 -4q-25 -57 -25 -168q0 -45 4.5 -121t4.5 -98q0 -43 -9 -49q-24 -21 -47 -21t-45 16.5t-33 32.5l-10 17l-213 -520q-1 -3 -2 -7.5t-8 -16t-16 -20.5t-26.5 -16.5t-39.5 -7.5h-10q-22 2 -39.5 11.5t-25.5 22.5 t-13.5 26t-6.5 21l-1 9l-8 81l-27 247q-9 -27 -22 -62.5t-33 -85.5t-38.5 -85t-29.5 -38q-21 -6 -39 -6q-21 0 -51 6q-52 16 -83.5 62t-37.5 84z" />
<glyph unicode="x" horiz-adv-x="563" d="M92 834q6 9 16 22t43.5 35t69.5 22q19 0 37 -6q61 -14 104 -188q18 28 46 63q31 43 53 43l6 -2q-39 -72 -90 -164q22 -103 37 -238t20 -219l4 -83l105 309l20 -14q0 -11 -17.5 -110t-49 -206.5t-58.5 -107.5q-9 1 -38.5 3.5t-44 7t-36 15.5t-34 34t-17.5 59 q-2 12 -5.5 55.5t-10 120t-12.5 137.5q-77 -130 -97 -137q-4 -2 -12 -2q-22 0 -22 36v9q57 88 120 188q-31 320 -67 328q-4 2 -8 2q-10 0 -18 -8t-10 -16l-3 -9z" />
<glyph unicode="y" horiz-adv-x="798" d="M0 348q0 109 8.5 254t17.5 236l9 90q41 12 86 12q95 0 108 -68q0 -10 -13 -179t-13 -244q0 -76 12 -76q16 0 74.5 126t108.5 252l51 126q7 0 19 -0.5t43.5 -4.5t57.5 -11t52 -22t36 -36q17 -20 17 -141q0 -128 -25.5 -506t-25.5 -496q0 -129 20 -129q20 3 74.5 161 t99.5 315l45 157l56 -10q-7 -28 -19.5 -74t-47.5 -169.5t-66.5 -223.5t-69 -197t-62.5 -129q-40 -12 -69 -12q-46 0 -74 20.5t-37 46.5q-65 98 -65 445q0 169 15 381t31 340l15 127q-194 -695 -260 -695t-174 86q-35 32 -35 248z" />
<glyph unicode="z" horiz-adv-x="505" d="M0 780l4 19q3 5 9 14t24 32t36.5 40.5t44.5 32t50 14.5q19 0 39 -10q59 -33 59 -166q0 -91 -29.5 -252.5t-29.5 -179.5q0 -17 6 -17q19 0 83 68t118 137l55 68q21 10 31 10q6 0 6 -6q0 -3 -4 -11q-1 -2 -53 -129t-116.5 -248t-113.5 -149q-59 -37 -106 -37t-72.5 31 t-32.5 65q-2 6 -2 25q0 65 43.5 212.5t87 291.5t43.5 201q0 45 -26 45q-14 0 -57.5 -55.5t-53.5 -57.5q-13 -8 -27 -8q-16 0 -16 20z" />
<glyph unicode="&#xad;" d="M428 571q0 2 1 5.5t1 5.5q0 1 1 4t1 4q6 26 56 50t102 24q54 10 133 10q81 0 117 -8q19 -4 22 -7q58 -17 58 -38q0 -11 -7 -11q54 -38 54 -71q-3 -32 -56 -41h-32q-74 0 -209 6t-156 10q-86 16 -86 57z" />
<glyph unicode="&#x2000;" horiz-adv-x="702" />
<glyph unicode="&#x2001;" horiz-adv-x="1405" />
<glyph unicode="&#x2002;" horiz-adv-x="702" />
<glyph unicode="&#x2003;" horiz-adv-x="1405" />
<glyph unicode="&#x2004;" horiz-adv-x="468" />
<glyph unicode="&#x2005;" horiz-adv-x="351" />
<glyph unicode="&#x2006;" horiz-adv-x="234" />
<glyph unicode="&#x2007;" horiz-adv-x="234" />
<glyph unicode="&#x2008;" horiz-adv-x="175" />
<glyph unicode="&#x2009;" horiz-adv-x="281" />
<glyph unicode="&#x200a;" horiz-adv-x="78" />
<glyph unicode="&#x2010;" d="M428 571q0 2 1 5.5t1 5.5q0 1 1 4t1 4q6 26 56 50t102 24q54 10 133 10q81 0 117 -8q19 -4 22 -7q58 -17 58 -38q0 -11 -7 -11q54 -38 54 -71q-3 -32 -56 -41h-32q-74 0 -209 6t-156 10q-86 16 -86 57z" />
<glyph unicode="&#x2011;" d="M428 571q0 2 1 5.5t1 5.5q0 1 1 4t1 4q6 26 56 50t102 24q54 10 133 10q81 0 117 -8q19 -4 22 -7q58 -17 58 -38q0 -11 -7 -11q54 -38 54 -71q-3 -32 -56 -41h-32q-74 0 -209 6t-156 10q-86 16 -86 57z" />
<glyph unicode="&#x2012;" d="M428 571q0 2 1 5.5t1 5.5q0 1 1 4t1 4q6 26 56 50t102 24q54 10 133 10q81 0 117 -8q19 -4 22 -7q58 -17 58 -38q0 -11 -7 -11q54 -38 54 -71q-3 -32 -56 -41h-32q-74 0 -209 6t-156 10q-86 16 -86 57z" />
<glyph unicode="&#x2013;" horiz-adv-x="2190" d="M428 571q0 2 2 5.5t2 5.5q0 1 2 4t2 4q11 26 106 50t194 24q102 10 252 10q154 0 223 -8q36 -4 42 -7q110 -17 110 -38q0 -11 -14 -11q103 -38 103 -71q-6 -32 -106 -41h-61q-141 0 -397.5 6t-296.5 10q-163 16 -163 57z" />
<glyph unicode="&#x2014;" horiz-adv-x="3214" d="M428 571q0 2 4 5.5t4 5.5q0 1 3.5 4t3.5 4q23 26 213 50t388 24q205 10 505 10q308 0 444 -8q73 -4 84 -7q220 -17 220 -38q0 -11 -26 -11q205 -38 205 -71q-11 -32 -213 -41h-121q-282 0 -794.5 6t-592.5 10q-327 16 -327 57z" />
<glyph unicode="&#x202f;" horiz-adv-x="281" />
<glyph unicode="&#x205f;" horiz-adv-x="351" />
<glyph unicode="&#x25fc;" horiz-adv-x="911" d="M0 0v911h911v-911h-911z" />
</font>
</defs>
</svg>
